<?xml version="1.0" encoding="utf-8"?>
<!-- Generator: Adobe Illustrator 25.0.0, SVG Export Plug-In . SVG Version: 6.00 Build 0)  -->
<svg version="1.1" id="Layer_1" xmlns="http://www.w3.org/2000/svg" xmlns:xlink="http://www.w3.org/1999/xlink" x="0px" y="0px"
	 viewBox="0 0 48 48" style="enable-background:new 0 0 48 48;" xml:space="preserve">
<style type="text/css">
	.st0{fill:#FFFFFF;}
	.st1{fill:none;stroke:#D9D9D9;}
	.st2{fill:none;stroke:#222222;}
</style>
<g>
	<path class="st0" d="M0,24L0,24C0,10.7,10.7,0,24,0l0,0c13.3,0,24,10.7,24,24l0,0c0,13.3-10.7,24-24,24l0,0C10.7,48,0,37.3,0,24z"
		/>
	<path class="st1" d="M0.5,24L0.5,24C0.5,11,11,0.5,24,0.5l0,0C37,0.5,47.5,11,47.5,24l0,0C47.5,37,37,47.5,24,47.5l0,0
		C11,47.5,0.5,37,0.5,24z"/>
	<path class="st2" d="M16.5,23.2l7.5-8 M24,15.2l7.5,8 M24,15.2v17.5"/>
</g>
</svg>
