<svg width="109" height="50" viewBox="0 0 109 50" fill="none" xmlns="http://www.w3.org/2000/svg">
<path d="M3.21118 49.6372H0V49.1655H0.925255V41.1466H0.0725692V40.6749H5.75109C6.94848 40.6749 8.58128 40.693 8.59942 40.693L8.92598 43.4869H8.50871L8.47242 43.3781C7.96444 41.6364 7.6016 41.1466 5.75109 41.1466H2.41292V45.0653H4.37228C6.04137 45.0653 6.51306 44.9202 6.51306 43.8498V43.6865H6.93033V46.8977H6.51306V46.7344C6.51306 45.9724 6.04137 45.5552 4.37228 45.5552H2.41292V49.1836H3.21118V49.6372ZM14.2961 42.5435C12.0827 42.5435 10.7946 43.7954 10.7946 45.9724C10.7946 48.1676 12.0283 49.365 14.2961 49.365C16.5639 49.365 17.7975 48.1676 17.7975 45.9724C17.7975 43.7954 16.5276 42.5435 14.2961 42.5435ZM14.2961 49.8004C11.0486 49.8004 9.28882 47.8229 9.28882 45.9724C9.28882 43.5595 11.8287 42.1081 14.2961 42.1081C17.5435 42.1081 19.3033 44.1038 19.3033 45.9724C19.2852 48.4579 16.709 49.8004 14.2961 49.8004ZM24.5102 49.8004C22.6778 49.8004 20.5007 49.1473 20.5007 46.0631V42.7068H19.7569V42.2714H22.7141V42.7068H21.8977V46.0631C21.8977 48.9478 23.5305 49.3832 24.5102 49.3832C26.0341 49.3832 27.685 48.5123 27.685 46.0631V42.7068H26.9412V42.2714H28.7554V42.7068H28.066V46.0631C28.066 48.8208 26.143 49.8004 24.5102 49.8004ZM31.5493 45.9361H34.1981C35.4681 45.9361 36.0486 45.4282 36.0486 44.3215C36.0486 43.2148 35.4681 42.7068 34.1981 42.7068H31.5493V45.9361ZM34.2888 46.3716H31.5675V49.2199H32.2388V49.6553H29.3723V49.2199H30.225V42.725H29.3723V42.2896H34.2163C35.0508 42.2896 37.5726 42.2896 37.5726 44.3396C37.5726 45.2649 37.0464 45.918 36.0668 46.1901C36.0668 46.1901 35.5044 46.3716 34.2888 46.3716ZM52.0319 41.5094L52.2315 43.7046L51.8324 43.6865L51.7235 43.3237C51.1611 41.6727 50.0181 40.9652 48.2039 40.9652C46.4078 40.9652 45.3374 41.4732 45.3374 42.3258C45.3374 43.2511 46.8251 43.6321 48.4035 44.0312C50.3447 44.521 52.5581 45.0835 52.5581 46.9158C52.5581 48.8389 51.0704 49.8186 48.1495 49.8186C48.1495 49.8186 45.9906 49.746 44.3215 49.111L43.8316 46.5167H44.1945L44.3396 46.9158C44.9383 48.4035 46.426 49.3469 48.1313 49.3469C49.3832 49.3469 51.5058 49.111 51.5058 47.5871C51.5058 46.4986 49.9274 46.1176 48.2583 45.7003C46.299 45.2286 44.2852 44.7388 44.2852 42.979C44.2852 41.3824 45.7003 40.4753 48.1858 40.4753C48.9477 40.4753 49.3832 40.566 50.1089 40.7656C50.1089 40.8019 51.3607 41.1647 52.0319 41.5094ZM61.357 49.7097H61.3208C61.3026 49.7097 60.0508 49.6553 59.3432 49.6553H53.8461V49.2199H54.6625V42.725H53.8461V42.2896H59.18C59.8512 42.2896 60.5406 42.2896 60.7039 42.2351L61.103 42.1807L61.3389 44.2489L61.0123 44.2671L60.976 44.1582C60.5406 42.7975 59.8694 42.7068 59.1618 42.7068H55.9869V45.5914H57.7649C59.0348 45.5914 59.4521 45.4282 59.4521 44.5029V44.3396H59.8331V47.1698H59.4521V47.0065C59.4521 46.3171 59.0348 46.0087 57.7649 46.0087H55.9869V49.2017H59.3432C60.5588 49.2017 60.8491 48.8208 61.2663 47.8411L61.3026 47.7322H61.7017L61.357 49.7097ZM64.7859 46.7888H68.9405L66.8723 43.0334L64.7859 46.7888ZM69.521 49.6372V49.2017H70.283L69.1763 47.2061H64.5319L63.4071 49.2017H64.1691V49.6372H62.3004V49.2017H62.9536L66.582 42.7068H65.9289V42.2714H67.9064L67.9427 42.344L71.7344 49.2017H72.4601V49.6372H69.521ZM86.357 42.1081C83.9078 42.1081 81.3498 43.5595 81.3498 45.9724C81.3498 47.8229 83.1096 49.8004 86.357 49.8004C88.7881 49.8004 91.3643 48.4579 91.3643 45.9724C91.3643 44.1038 89.6045 42.1081 86.357 42.1081ZM86.357 49.365C84.1074 49.365 82.8556 48.1676 82.8556 45.9724C82.8556 43.7954 84.1255 42.5435 86.357 42.5435C88.5885 42.5435 89.8585 43.7954 89.8585 45.9724C89.8585 48.1676 88.6248 49.365 86.357 49.365ZM91.9811 42.2714V42.7068H92.5617L92.8882 43.0152V49.2199H92.0174V49.6553H94.0493V49.2199H93.2692V43.3781L100.218 49.9274L100.29 50V42.7068H100.943V42.2714H99.111V42.7068H99.9093V47.8229L94.0675 42.2896L94.0493 42.2714H91.9811ZM38.4253 49.3832C37.3004 49.3469 37.1916 48.9296 36.9013 48.3672L35.8853 46.1538H34.3795L36.2663 49.8186H38.4434L38.4253 49.3832ZM79.8803 43.0334L80.0435 44.8295H79.717L79.6263 44.521C79.1727 43.1785 78.2293 42.598 76.7416 42.598C75.2721 42.598 74.4013 43.0152 74.4013 43.7046C74.4013 44.4666 75.6168 44.775 76.9049 45.1016C78.5014 45.5007 80.2975 45.9543 80.2975 47.4601C80.2975 49.0385 79.082 49.8367 76.7054 49.8367C76.7054 49.8367 74.9456 49.7823 73.5849 49.2562L73.1858 47.1335H73.4942L73.6212 47.4601C74.111 48.6756 75.3266 49.4557 76.7235 49.4557C77.7576 49.4557 79.4811 49.2743 79.4811 48.0225C79.4811 47.1335 78.193 46.807 76.8324 46.4804C75.2358 46.0994 73.5849 45.7003 73.5849 44.2671C73.5849 42.9608 74.746 42.217 76.7779 42.217C77.3948 42.217 77.7576 42.2896 78.3563 42.4528C78.32 42.4528 79.336 42.7431 79.8803 43.0334ZM108.454 43.0334L108.618 44.8295H108.291L108.2 44.521C107.747 43.1785 106.803 42.598 105.316 42.598C103.846 42.598 102.975 43.0152 102.975 43.7046C102.975 44.4666 104.191 44.775 105.479 45.1016C107.075 45.5007 108.872 45.9543 108.872 47.4601C108.872 49.0385 107.656 49.8367 105.279 49.8367C105.279 49.8367 103.52 49.7823 102.159 49.2562L101.76 47.1335H102.068L102.195 47.4601C102.685 48.6756 103.901 49.4557 105.298 49.4557C106.332 49.4557 108.055 49.2743 108.055 48.0225C108.055 47.1335 106.767 46.807 105.406 46.4804C103.81 46.0994 102.159 45.7003 102.159 44.2671C102.159 42.9608 103.32 42.217 105.352 42.217C105.969 42.217 106.332 42.2896 106.93 42.4528C106.894 42.4528 107.91 42.7431 108.454 43.0334ZM66.1103 20.9724C65.4753 21.2264 65.0762 21.6981 65.2395 22.4782C66.0014 22.2061 66.201 21.6437 66.1103 20.9724ZM63.5885 21.426C63.7155 22.0972 64.0784 22.5871 64.8766 22.5871C64.7859 21.807 64.2598 21.4804 63.5885 21.426ZM64.8585 24.6372C64.8222 23.857 64.2961 23.5305 63.5885 23.4761C63.6792 24.1292 64.0239 24.619 64.8585 24.6372ZM62.5726 14.1509C61.9013 14.2054 61.3752 14.5319 61.2845 15.312C62.0827 15.312 62.4456 14.8222 62.5726 14.1509ZM59.5065 13.5704C59.6335 14.2417 59.9964 14.7315 60.7946 14.7315C60.7039 13.9514 60.1778 13.6248 59.5065 13.5704ZM59.3251 11.1393C60.1234 11.1212 60.4862 10.6495 60.6132 9.97823C59.9238 10.0327 59.4158 10.3411 59.3251 11.1393ZM59.9419 8.20029C59.3251 8.47243 58.926 8.92598 59.0893 9.7061C59.8512 9.4521 60.0327 8.87156 59.9419 8.20029ZM57.7104 8.7627C57.7286 9.43396 58.0189 9.97823 58.799 10.0871C58.8353 9.30697 58.3636 8.92598 57.7104 8.7627ZM57.4202 6.85777C58.2184 6.83962 58.5813 6.36793 58.6901 5.69666C58.0189 5.76923 57.5109 6.07765 57.4202 6.85777ZM58.0914 4.10015C57.5109 4.42671 57.1662 4.93469 57.402 5.67852C58.1096 5.35196 58.2547 4.75327 58.0914 4.10015ZM57.1843 6.24093C57.2025 5.44267 56.7489 5.06168 56.0958 4.91655C56.1139 5.58781 56.4042 6.13208 57.1843 6.24093ZM56.7671 7.40203C56.6763 6.62192 56.1684 6.29536 55.4971 6.24093C55.6059 6.89405 55.9688 7.38389 56.7671 7.40203ZM54.6444 8.94412C54.8803 8.79898 57.3295 7.36575 57.3295 7.36575C57.3295 7.36575 57.3476 7.34761 57.3476 7.32946L57.2387 6.45864H57.2025C57.2025 6.45864 57.2388 6.82148 57.2206 6.96662C57.2025 7.1299 57.1843 7.18433 57.0573 7.27504L54.336 8.67199C54.336 8.8897 54.336 9.08926 54.3541 9.30697C54.3904 9.19811 54.463 9.07112 54.6444 8.94412ZM54.0457 1.19739C53.955 0.417272 53.447 0.0907134 52.7758 0.0362867C52.8846 0.707549 53.2475 1.19739 54.0457 1.19739ZM54.0276 2.48549C53.9369 1.70537 53.4289 1.37881 52.7576 1.32438C52.8665 1.99565 53.2293 2.48549 54.0276 2.48549ZM54.0094 3.77359C53.9187 2.99347 53.4107 2.66691 52.7395 2.61248C52.8483 3.28375 53.2112 3.75544 54.0094 3.77359ZM53.9913 5.06169C53.9006 4.28157 53.3926 3.95501 52.7213 3.90058C52.8302 4.5537 53.193 5.04354 53.9913 5.06169ZM53.9731 6.34978C53.8824 5.56967 53.3745 5.24311 52.7032 5.18868C52.812 5.85994 53.1749 6.33164 53.9731 6.34978ZM53.955 7.63788C53.8643 6.85777 53.3563 6.53121 52.6851 6.47678C52.7939 7.1299 53.1567 7.61974 53.955 7.63788ZM52.2315 4.69884C51.5784 4.91655 51.1611 5.33382 51.2518 6.11394C52.0319 5.93251 52.2678 5.3701 52.2315 4.69884ZM51.2881 7.07547C52.0864 7.05733 52.4492 6.58563 52.5581 5.91437C51.8868 5.9688 51.3607 6.27721 51.2881 7.07547ZM50.9797 6.27721C51.0885 5.4971 50.6713 5.06168 50.0363 4.82584C49.9819 5.4971 50.1996 6.05951 50.9797 6.27721ZM50.7983 7.16618C50.7075 6.38607 50.1996 6.05951 49.5283 6.00508C49.6553 6.6582 50.0181 7.14804 50.7983 7.16618ZM52.6851 10.7765C52.0138 10.8309 51.4877 11.1575 51.3969 11.9376C52.2133 11.9194 52.5762 11.4296 52.6851 10.7765ZM50.4717 11.4478C51.27 11.4296 51.6328 10.9579 51.7598 10.2866C51.0704 10.3411 50.5624 10.6676 50.4717 11.4478ZM53.6284 11.2482C52.9572 11.3026 52.4311 11.6292 52.3403 12.4093C53.1386 12.4093 53.5014 11.9194 53.6284 11.2482ZM51.9594 9.92381C52.7576 9.90566 53.1205 9.43396 53.2293 8.7627C52.5581 8.81713 52.0319 9.14369 51.9594 9.92381ZM51.0522 9.41582C51.8505 9.39768 52.2134 8.92598 52.3222 8.25472C51.6509 8.30914 51.143 8.61756 51.0522 9.41582ZM50.1451 8.87155C50.9434 8.85341 51.3062 8.38171 51.4151 7.71045C50.7438 7.76488 50.2177 8.09144 50.1451 8.87155ZM50.8164 9.77867C50.1451 9.83309 49.619 10.1597 49.5283 10.9398C50.3266 10.9398 50.6894 10.4499 50.8164 9.77867ZM49.2924 9.7061C49.3832 8.92598 48.9659 8.49057 48.3128 8.27286C48.2765 8.94412 48.5305 9.50653 49.2924 9.7061ZM49.0385 10.9035C48.9477 10.1052 48.4398 9.79681 47.7504 9.74238C47.8955 10.3955 48.2583 10.8853 49.0385 10.9035ZM49.7279 14.9311C49.0566 14.9855 48.5305 15.312 48.4398 16.0922C49.238 16.074 49.6009 15.5842 49.7279 14.9311ZM47.5327 15.566C48.3309 15.5479 48.6938 15.0762 48.8208 14.4049C48.1313 14.4594 47.6234 14.7859 47.5327 15.566ZM50.6531 15.4028C49.9819 15.4572 49.4557 15.7837 49.365 16.5639C50.1633 16.5639 50.5443 16.074 50.6531 15.4028ZM51.5965 15.8926C50.9253 15.947 50.3991 16.2736 50.3084 17.0537C51.1067 17.0537 51.4695 16.5639 51.5965 15.8926ZM52.5399 16.3824C51.8686 16.4369 51.3425 16.7634 51.2518 17.5435C52.0501 17.5254 52.4129 17.0537 52.5399 16.3824ZM53.4833 16.8541C52.812 16.9086 52.2859 17.2351 52.1952 18.0152C52.9935 18.0152 53.3563 17.5254 53.4833 16.8541ZM52.1408 14.9492C52.939 14.9311 53.3019 14.4594 53.4289 13.7881C52.7395 13.8425 52.2134 14.1691 52.1408 14.9492ZM51.2155 14.4231C52.0138 14.4049 52.3766 13.9332 52.5036 13.262C51.8324 13.3164 51.3062 13.6248 51.2155 14.4231ZM50.3266 13.8788C51.1248 13.8607 51.4877 13.389 51.6147 12.7177C50.9253 12.7721 50.4173 13.0987 50.3266 13.8788ZM49.4194 13.3527C50.2177 13.3345 50.5805 12.8628 50.7075 12.1916C50.0181 12.246 49.5102 12.5726 49.4194 13.3527ZM48.5123 12.8266C49.3106 12.8084 49.6734 12.3367 49.8004 11.6655C49.1292 11.7199 48.6031 12.0283 48.5123 12.8266ZM48.7845 13.2075C48.1132 13.262 47.5871 13.5885 47.4964 14.3687C48.2946 14.3687 48.6575 13.8788 48.7845 13.2075ZM47.3512 13.7337C47.5508 12.9717 47.1698 12.4819 46.553 12.1916C46.426 12.8628 46.6074 13.4434 47.3512 13.7337ZM47.1335 14.7496C47.0428 13.9514 46.5348 13.643 45.8454 13.5885C45.9724 14.2598 46.3353 14.7315 47.1335 14.7496ZM46.9521 15.9107C46.8614 15.1125 46.3534 14.8041 45.664 14.7496C45.791 15.4209 46.1538 15.9107 46.9521 15.9107ZM49.1655 19.1763C49.9637 19.1582 50.3266 18.6865 50.4536 18.0152C49.7641 18.0515 49.2562 18.3781 49.1655 19.1763ZM49.1655 20.9906C49.9637 20.9724 50.3266 20.5007 50.4536 19.8295C49.7641 19.8839 49.2562 20.2105 49.1655 20.9906ZM48.2765 18.6502C49.0747 18.6321 49.4376 18.1422 49.5646 17.4891C48.8752 17.5254 48.3672 17.852 48.2765 18.6502ZM47.3694 18.106C48.1676 18.0878 48.5305 17.598 48.6575 16.9448C47.9862 16.9993 47.4601 17.3258 47.3694 18.106ZM46.4804 17.5798C47.2787 17.5617 47.6415 17.0718 47.7685 16.4187C47.0791 16.4732 46.5711 16.7997 46.4804 17.5798ZM65.0399 22.5689C65.0399 22.5689 65.1669 23.8752 65.1306 24.4013C65.0943 25 65.0036 25.1996 64.5501 25.508L54.717 30.5697C54.6988 29.6081 54.6807 28.5015 54.6625 27.3041V26.9956C54.6444 26.3425 54.8258 25.9797 55.6059 25.4898C56.2772 25.0544 63.5341 20.8273 63.5341 20.8273C63.5522 20.8091 63.5704 20.791 63.5704 20.7366L63.2438 18.1604H63.135C63.135 18.1604 63.2257 19.2489 63.2075 19.6843C63.1713 20.1742 63.1168 20.3556 62.7358 20.5914L54.6263 24.7642C54.6081 23.5123 54.59 22.2061 54.5537 20.8817V20.5189C54.5718 20.1016 54.717 19.8476 55.2431 19.521C55.7511 19.1945 61.1575 16.0377 61.1575 16.0377C61.1756 16.0377 61.1938 16.0196 61.1938 15.9652L60.9398 14.0421H60.8491C60.8491 14.0421 60.9216 14.8585 60.9035 15.1669C60.8853 15.5298 60.8309 15.6567 60.5588 15.8382L54.5174 18.9405C54.4993 17.4347 54.463 15.9107 54.4448 14.4231C54.4811 14.2054 54.6081 13.9332 54.9347 13.7337C55.2975 13.4978 59.18 11.23 59.18 11.23C59.18 11.23 59.1981 11.2119 59.1981 11.1756L59.0167 9.79681H58.9623C58.9623 9.79681 59.0167 10.3774 58.9985 10.6132C58.9804 10.8853 58.9441 10.9761 58.7446 11.1031L54.4267 13.3345C54.4086 11.9557 54.3723 10.5951 54.3541 9.32511C54.3541 9.1074 54.3541 8.8897 54.336 8.69013C54.2453 3.71916 54.1727 0.0362867 54.1727 0.0362867C54.1727 0.0181444 54.1546 0 54.1364 0C54.1183 0 54.1001 0.0181444 54.1001 0.0362867C54.1001 0.0362867 54.0276 3.71916 53.955 8.67199C53.955 8.7627 53.955 8.87155 53.955 8.98041C53.955 8.87155 53.955 8.78084 53.955 8.67199L51.2518 7.27504C51.1248 7.18433 51.1067 7.1299 51.0885 6.96662C51.0704 6.82148 51.1067 6.45864 51.1067 6.45864H51.0704L50.9615 7.32946C50.9615 7.34761 50.9615 7.34761 50.9797 7.36575C50.9797 7.36575 53.4289 8.79898 53.6647 8.94412C53.828 9.05298 53.9006 9.16183 53.955 9.28883C53.9369 10.5769 53.9006 11.9376 53.8824 13.3345L49.5646 11.1212C49.365 10.9942 49.3287 10.9035 49.3106 10.6314C49.2924 10.3955 49.3469 9.81495 49.3469 9.81495H49.2924L49.111 11.1938C49.111 11.23 49.1292 11.23 49.1292 11.2482C49.1292 11.2482 53.0116 13.516 53.3745 13.7518C53.6829 13.9514 53.8099 14.1872 53.8643 14.3868C53.8462 15.8926 53.8099 17.4347 53.7917 18.9586L47.7504 15.8563C47.4782 15.6749 47.4238 15.5479 47.4057 15.1851C47.3875 14.8585 47.4601 14.0602 47.4601 14.0602H47.3694L47.1154 15.9833C47.1154 16.0196 47.1335 16.0377 47.1517 16.0559C47.1517 16.0559 52.5762 19.2308 53.066 19.5392C53.6103 19.8839 53.7554 20.1379 53.7554 20.5733V20.9543C53.7373 22.2605 53.7192 23.5486 53.6829 24.7823L45.5733 20.6096C45.1923 20.3737 45.1379 20.1923 45.1016 19.7025C45.0653 19.2671 45.1742 18.1967 45.1742 18.1967H45.0472L44.7206 20.7729C44.7206 20.8273 44.7388 20.8454 44.7569 20.8636C44.7569 20.8636 52.0138 25.1089 52.6851 25.5261C53.4652 26.016 53.6466 26.3788 53.6284 27.0319C53.6103 28.3563 53.5922 29.5537 53.574 30.606L43.7409 25.508C43.2874 25.2177 43.2148 25 43.1604 24.4013C43.1241 23.8752 43.2511 22.5689 43.2511 22.5689H43.1241L42.725 25.6894C42.725 25.762 42.7612 25.7801 42.7794 25.7983C42.7794 25.7983 51.5602 30.9325 52.3766 31.4586C53.3382 32.0573 53.5196 32.1118 53.5196 33.2184C53.5196 33.2729 53.5015 34.5428 53.5015 34.5972C53.5015 35.5588 52.7395 35.5951 52.7395 35.5951V35.7765H55.5515V35.5951C55.5515 35.5951 54.7895 35.5769 54.7895 34.5972C54.7895 34.5428 54.7714 33.3091 54.7714 33.2184C54.7714 32.1118 54.971 32.0755 55.9144 31.4586C56.7308 30.9325 65.5116 25.7983 65.5116 25.7983C65.5297 25.7801 65.566 25.762 65.566 25.6894L65.1669 22.5689H65.0399ZM51.016 20.2649C51.8142 20.2467 52.1771 19.775 52.3041 19.1038C51.6147 19.1582 51.1067 19.4848 51.016 20.2649ZM53.193 19.6843C52.5218 19.7388 51.9956 20.0653 51.9049 20.8454C52.7032 20.8454 53.066 20.3556 53.193 19.6843ZM57.9826 17.0537C58.5994 16.5639 58.5994 15.947 58.291 15.3483C57.783 15.8019 57.5653 16.3643 57.9826 17.0537ZM56.6945 16.1829C56.1865 16.6364 55.9869 17.217 56.3861 17.8882C57.0029 17.3984 57.0029 16.7816 56.6945 16.1829ZM55.0073 13.8425C55.1343 14.5138 55.4971 15.0036 56.2953 15.0036C56.1865 14.2054 55.6785 13.897 55.0073 13.8425ZM59.561 19.0675C59.4702 18.2692 58.9623 17.9608 58.2729 17.9064C58.3999 18.5777 58.7627 19.0493 59.561 19.0675ZM57.9644 19.9383C57.8737 19.1401 57.3657 18.8316 56.6763 18.7772C56.8033 19.4303 57.1662 19.9202 57.9644 19.9383ZM62.4637 26.3607C62.373 25.5624 61.865 25.254 61.1756 25.1814C61.3026 25.8527 61.6655 26.3425 62.4637 26.3607ZM60.6132 27.1952C60.5225 26.397 60.0145 26.0885 59.3251 26.0341C59.4521 26.7054 59.8149 27.1952 60.6132 27.1952ZM58.4724 24.0566C58.5994 24.7279 58.9623 25.2177 59.7605 25.2177C59.6698 24.4376 59.1618 24.111 58.4724 24.0566ZM57.275 28.9006C57.1843 28.1023 56.6763 27.7939 55.9869 27.7395C56.1139 28.4107 56.4768 28.9006 57.275 28.9006ZM64.3505 26.9231C64.2235 27.7032 64.6771 28.1205 65.3665 28.32C65.4209 27.6488 65.1669 27.1045 64.3505 26.9231ZM62.5907 28.193C62.627 28.9913 63.1531 29.2997 63.8788 29.3723C63.7881 28.701 63.4434 28.2112 62.5907 28.193ZM59.8875 30.8055C60.6313 30.4971 60.7946 29.9165 60.6495 29.2453C60.0508 29.5356 59.688 30.0254 59.8875 30.8055ZM63.0443 18.7772C62.9536 17.979 62.4456 17.6705 61.7562 17.6161C61.8832 18.2874 62.246 18.7591 63.0443 18.7772ZM62.9898 19.9383C62.8991 19.1401 62.3911 18.8316 61.7017 18.7772C61.8287 19.4485 62.1916 19.9383 62.9898 19.9383ZM63.6974 20.7184C64.4956 20.7003 64.8585 20.2286 64.9855 19.5573C64.2961 19.6118 63.77 19.9383 63.6974 20.7184ZM64.7859 17.6161C64.1147 17.6705 63.5885 17.9971 63.4978 18.7772C64.2961 18.7591 64.6589 18.2874 64.7859 17.6161Z" fill="white"/>
</svg>
